<svg width="18" height="15" viewBox="0 0 18 15" fill="none" xmlns="http://www.w3.org/2000/svg">
<path fill-rule="evenodd" clip-rule="evenodd" d="M0.599975 7.50019C0.599975 7.00314 1.00292 6.60019 1.49998 6.60019L14.2655 6.60019L9.27618 1.84894C8.91788 1.50443 8.90671 0.93469 9.25122 0.576396C9.59574 0.218101 10.1655 0.20693 10.5238 0.551444L17.1238 6.85144C17.3002 7.02113 17.4 7.25538 17.4 7.50019C17.4 7.74501 17.3002 7.97926 17.1238 8.14894L10.5238 14.4489C10.1655 14.7935 9.59574 14.7823 9.25123 14.424C8.90671 14.0657 8.91788 13.496 9.27618 13.1514L14.2655 8.40019L1.49998 8.40019C1.00292 8.40019 0.599975 7.99725 0.599975 7.50019Z" fill="white"/>
</svg>
